<?xml version="1.0" encoding="UTF-8" standalone="no"?>
<!DOCTYPE svg PUBLIC "-//W3C//DTD SVG 1.1//EN"
 "http://www.w3.org/Graphics/SVG/1.1/DTD/svg11.dtd">
<!-- Generated by graphviz version 2.40.1 (20161225.0304)
 -->
<!-- Title: %3 Pages: 1 -->
<svg width="1480pt" height="548pt"
 viewBox="0.00 0.00 1479.50 548.00" xmlns="http://www.w3.org/2000/svg" xmlns:xlink="http://www.w3.org/1999/xlink">
<g id="graph0" class="graph" transform="scale(1 1) rotate(0) translate(4 544)">
<title>%3</title>
<polygon fill="#ffffff" stroke="transparent" points="-4,4 -4,-544 1475.5,-544 1475.5,4 -4,4"/>
<!-- [root] aws_backup_plan.main (expand) -->
<g id="node1" class="node">
<title>[root] aws_backup_plan.main (expand)</title>
<polygon fill="none" stroke="#000000" points="491,-324 309,-324 309,-288 491,-288 491,-324"/>
<text text-anchor="middle" x="400" y="-302.3" font-family="Times,serif" font-size="14.00" fill="#000000">aws_backup_plan.main</text>
</g>
<!-- [root] aws_backup_vault.main (expand) -->
<g id="node3" class="node">
<title>[root] aws_backup_vault.main (expand)</title>
<polygon fill="none" stroke="#000000" points="422,-252 234,-252 234,-216 422,-216 422,-252"/>
<text text-anchor="middle" x="328" y="-230.3" font-family="Times,serif" font-size="14.00" fill="#000000">aws_backup_vault.main</text>
</g>
<!-- [root] aws_backup_plan.main (expand)&#45;&gt;[root] aws_backup_vault.main (expand) -->
<g id="edge1" class="edge">
<title>[root] aws_backup_plan.main (expand)&#45;&gt;[root] aws_backup_vault.main (expand)</title>
<path fill="none" stroke="#000000" d="M381.8314,-287.8314C373.2848,-279.2848 362.9443,-268.9443 353.6198,-259.6198"/>
<polygon fill="#000000" stroke="#000000" points="355.9592,-257.0095 346.4133,-252.4133 351.0095,-261.9592 355.9592,-257.0095"/>
</g>
<!-- [root] aws_backup_selection.main (expand) -->
<g id="node2" class="node">
<title>[root] aws_backup_selection.main (expand)</title>
<polygon fill="none" stroke="#000000" points="754,-396 538,-396 538,-360 754,-360 754,-396"/>
<text text-anchor="middle" x="646" y="-374.3" font-family="Times,serif" font-size="14.00" fill="#000000">aws_backup_selection.main</text>
</g>
<!-- [root] aws_backup_selection.main (expand)&#45;&gt;[root] aws_backup_plan.main (expand) -->
<g id="edge2" class="edge">
<title>[root] aws_backup_selection.main (expand)&#45;&gt;[root] aws_backup_plan.main (expand)</title>
<path fill="none" stroke="#000000" d="M584.2413,-359.9243C550.0268,-349.9103 507.3244,-337.412 471.6476,-326.97"/>
<polygon fill="#000000" stroke="#000000" points="472.3646,-323.5331 461.7841,-324.0831 470.3983,-330.2513 472.3646,-323.5331"/>
</g>
<!-- [root] aws_iam_role.backup (expand) -->
<g id="node6" class="node">
<title>[root] aws_iam_role.backup (expand)</title>
<polygon fill="none" stroke="#000000" points="291,-324 121,-324 121,-288 291,-288 291,-324"/>
<text text-anchor="middle" x="206" y="-302.3" font-family="Times,serif" font-size="14.00" fill="#000000">aws_iam_role.backup</text>
</g>
<!-- [root] aws_backup_selection.main (expand)&#45;&gt;[root] aws_iam_role.backup (expand) -->
<g id="edge3" class="edge">
<title>[root] aws_backup_selection.main (expand)&#45;&gt;[root] aws_iam_role.backup (expand)</title>
<path fill="none" stroke="#000000" d="M537.9187,-362.1081C472.1398,-352.2037 386.1727,-338.8486 300.8868,-324.1263"/>
<polygon fill="#000000" stroke="#000000" points="301.4812,-320.6772 291.0304,-322.4181 300.2859,-327.5744 301.4812,-320.6772"/>
</g>
<!-- [root] data.aws_ebs_volume.main (expand) -->
<g id="node21" class="node">
<title>[root] data.aws_ebs_volume.main (expand)</title>
<polygon fill="none" stroke="#000000" points="1038,-324 826,-324 826,-288 1038,-288 1038,-324"/>
<text text-anchor="middle" x="932" y="-302.3" font-family="Times,serif" font-size="14.00" fill="#000000">data.aws_ebs_volume.main</text>
</g>
<!-- [root] aws_backup_selection.main (expand)&#45;&gt;[root] data.aws_ebs_volume.main (expand) -->
<g id="edge4" class="edge">
<title>[root] aws_backup_selection.main (expand)&#45;&gt;[root] data.aws_ebs_volume.main (expand)</title>
<path fill="none" stroke="#000000" d="M717.8007,-359.9243C758.0885,-349.7819 808.499,-337.0912 850.2936,-326.5694"/>
<polygon fill="#000000" stroke="#000000" points="851.3268,-329.9186 860.1697,-324.0831 849.6178,-323.1304 851.3268,-329.9186"/>
</g>
<!-- [root] aws_kms_key.main (expand) -->
<g id="node13" class="node">
<title>[root] aws_kms_key.main (expand)</title>
<polygon fill="none" stroke="#000000" points="408.5,-108 255.5,-108 255.5,-72 408.5,-72 408.5,-108"/>
<text text-anchor="middle" x="332" y="-86.3" font-family="Times,serif" font-size="14.00" fill="#000000">aws_kms_key.main</text>
</g>
<!-- [root] aws_backup_vault.main (expand)&#45;&gt;[root] aws_kms_key.main (expand) -->
<g id="edge5" class="edge">
<title>[root] aws_backup_vault.main (expand)&#45;&gt;[root] aws_kms_key.main (expand)</title>
<path fill="none" stroke="#000000" d="M328.5066,-215.7623C329.1889,-191.201 330.4098,-147.2474 331.2124,-118.3541"/>
<polygon fill="#000000" stroke="#000000" points="334.7184,-118.183 331.4975,-108.0896 327.7211,-117.9885 334.7184,-118.183"/>
</g>
<!-- [root] aws_iam_instance_profile.main (expand) -->
<g id="node4" class="node">
<title>[root] aws_iam_instance_profile.main (expand)</title>
<polygon fill="none" stroke="#000000" points="824,-180 584,-180 584,-144 824,-144 824,-180"/>
<text text-anchor="middle" x="704" y="-158.3" font-family="Times,serif" font-size="14.00" fill="#000000">aws_iam_instance_profile.main</text>
</g>
<!-- [root] aws_iam_role.main (expand) -->
<g id="node7" class="node">
<title>[root] aws_iam_role.main (expand)</title>
<polygon fill="none" stroke="#000000" points="632.5,-108 479.5,-108 479.5,-72 632.5,-72 632.5,-108"/>
<text text-anchor="middle" x="556" y="-86.3" font-family="Times,serif" font-size="14.00" fill="#000000">aws_iam_role.main</text>
</g>
<!-- [root] aws_iam_instance_profile.main (expand)&#45;&gt;[root] aws_iam_role.main (expand) -->
<g id="edge6" class="edge">
<title>[root] aws_iam_instance_profile.main (expand)&#45;&gt;[root] aws_iam_role.main (expand)</title>
<path fill="none" stroke="#000000" d="M666.6534,-143.8314C647.1231,-134.3302 623.0359,-122.6121 602.3269,-112.5374"/>
<polygon fill="#000000" stroke="#000000" points="603.6016,-109.2654 593.0781,-108.038 600.5393,-115.56 603.6016,-109.2654"/>
</g>
<!-- [root] aws_iam_policy.main (expand) -->
<g id="node5" class="node">
<title>[root] aws_iam_policy.main (expand)</title>
<polygon fill="none" stroke="#000000" points="607.5,-252 440.5,-252 440.5,-216 607.5,-216 607.5,-252"/>
<text text-anchor="middle" x="524" y="-230.3" font-family="Times,serif" font-size="14.00" fill="#000000">aws_iam_policy.main</text>
</g>
<!-- [root] provider[&quot;registry.terraform.io/hashicorp/aws&quot;] -->
<g id="node22" class="node">
<title>[root] provider[&quot;registry.terraform.io/hashicorp/aws&quot;]</title>
<polygon fill="none" stroke="#000000" points="386,-36 58.5599,-18 386,0 713.4401,-18 386,-36"/>
<text text-anchor="middle" x="386" y="-14.3" font-family="Times,serif" font-size="14.00" fill="#000000">provider[&quot;registry.terraform.io/hashicorp/aws&quot;]</text>
</g>
<!-- [root] aws_iam_policy.main (expand)&#45;&gt;[root] provider[&quot;registry.terraform.io/hashicorp/aws&quot;] -->
<g id="edge7" class="edge">
<title>[root] aws_iam_policy.main (expand)&#45;&gt;[root] provider[&quot;registry.terraform.io/hashicorp/aws&quot;]</title>
<path fill="none" stroke="#000000" d="M512.4716,-215.9555C488.0482,-177.7276 431.015,-88.4583 402.6419,-44.0482"/>
<polygon fill="#000000" stroke="#000000" points="405.5392,-42.0822 397.2059,-35.5396 399.6404,-45.851 405.5392,-42.0822"/>
</g>
<!-- [root] aws_iam_role.backup (expand)&#45;&gt;[root] provider[&quot;registry.terraform.io/hashicorp/aws&quot;] -->
<g id="edge8" class="edge">
<title>[root] aws_iam_role.backup (expand)&#45;&gt;[root] provider[&quot;registry.terraform.io/hashicorp/aws&quot;]</title>
<path fill="none" stroke="#000000" d="M203.5492,-287.7563C198.8475,-244.8705 193.2647,-136.4207 246,-72 259.9522,-54.9562 279.9598,-43.2802 300.5009,-35.2856"/>
<polygon fill="#000000" stroke="#000000" points="301.7433,-38.5582 309.9565,-31.8654 299.3622,-31.9756 301.7433,-38.5582"/>
</g>
<!-- [root] aws_iam_role.main (expand)&#45;&gt;[root] provider[&quot;registry.terraform.io/hashicorp/aws&quot;] -->
<g id="edge9" class="edge">
<title>[root] aws_iam_role.main (expand)&#45;&gt;[root] provider[&quot;registry.terraform.io/hashicorp/aws&quot;]</title>
<path fill="none" stroke="#000000" d="M513.1018,-71.8314C488.6805,-61.4882 458.056,-48.5178 432.9871,-37.9004"/>
<polygon fill="#000000" stroke="#000000" points="434.2489,-34.6339 423.6758,-33.9568 431.519,-41.0797 434.2489,-34.6339"/>
</g>
<!-- [root] aws_iam_role_policy_attachment.backup (expand) -->
<g id="node8" class="node">
<title>[root] aws_iam_role_policy_attachment.backup (expand)</title>
<polygon fill="none" stroke="#000000" points="481.5,-396 170.5,-396 170.5,-360 481.5,-360 481.5,-396"/>
<text text-anchor="middle" x="326" y="-374.3" font-family="Times,serif" font-size="14.00" fill="#000000">aws_iam_role_policy_attachment.backup</text>
</g>
<!-- [root] aws_iam_role_policy_attachment.backup (expand)&#45;&gt;[root] aws_iam_role.backup (expand) -->
<g id="edge10" class="edge">
<title>[root] aws_iam_role_policy_attachment.backup (expand)&#45;&gt;[root] aws_iam_role.backup (expand)</title>
<path fill="none" stroke="#000000" d="M295.7189,-359.8314C280.3702,-350.6221 261.5502,-339.3301 245.1177,-329.4706"/>
<polygon fill="#000000" stroke="#000000" points="246.6471,-326.3066 236.2714,-324.1628 243.0456,-332.3091 246.6471,-326.3066"/>
</g>
<!-- [root] aws_iam_role_policy_attachment.main (expand) -->
<g id="node9" class="node">
<title>[root] aws_iam_role_policy_attachment.main (expand)</title>
<polygon fill="none" stroke="#000000" points="802.5,-324 509.5,-324 509.5,-288 802.5,-288 802.5,-324"/>
<text text-anchor="middle" x="656" y="-302.3" font-family="Times,serif" font-size="14.00" fill="#000000">aws_iam_role_policy_attachment.main</text>
</g>
<!-- [root] aws_iam_role_policy_attachment.main (expand)&#45;&gt;[root] aws_iam_policy.main (expand) -->
<g id="edge11" class="edge">
<title>[root] aws_iam_role_policy_attachment.main (expand)&#45;&gt;[root] aws_iam_policy.main (expand)</title>
<path fill="none" stroke="#000000" d="M622.6908,-287.8314C605.5727,-278.4942 584.5294,-267.016 566.2778,-257.0606"/>
<polygon fill="#000000" stroke="#000000" points="567.7535,-253.8788 557.2985,-252.1628 564.4015,-260.024 567.7535,-253.8788"/>
</g>
<!-- [root] aws_iam_role_policy_attachment.main (expand)&#45;&gt;[root] aws_iam_role.main (expand) -->
<g id="edge12" class="edge">
<title>[root] aws_iam_role_policy_attachment.main (expand)&#45;&gt;[root] aws_iam_role.main (expand)</title>
<path fill="none" stroke="#000000" d="M650.5374,-287.8857C644.2157,-268.7988 632.5152,-238.4507 616,-216 601.6306,-196.4662 587.2412,-200.9333 575,-180 564.0158,-161.2164 559.3418,-136.9314 557.3725,-118.3227"/>
<polygon fill="#000000" stroke="#000000" points="560.8382,-117.7717 556.4983,-108.1066 553.8637,-118.3686 560.8382,-117.7717"/>
</g>
<!-- [root] aws_instance.main (expand) -->
<g id="node10" class="node">
<title>[root] aws_instance.main (expand)</title>
<polygon fill="none" stroke="#000000" points="1015,-252 863,-252 863,-216 1015,-216 1015,-252"/>
<text text-anchor="middle" x="939" y="-230.3" font-family="Times,serif" font-size="14.00" fill="#000000">aws_instance.main</text>
</g>
<!-- [root] aws_instance.main (expand)&#45;&gt;[root] aws_iam_instance_profile.main (expand) -->
<g id="edge13" class="edge">
<title>[root] aws_instance.main (expand)&#45;&gt;[root] aws_iam_instance_profile.main (expand)</title>
<path fill="none" stroke="#000000" d="M880.0029,-215.9243C847.458,-205.9531 806.8739,-193.5188 772.8811,-183.104"/>
<polygon fill="#000000" stroke="#000000" points="773.608,-179.6662 763.0214,-180.0831 771.5574,-186.3591 773.608,-179.6662"/>
</g>
<!-- [root] aws_security_group.main (expand) -->
<g id="node18" class="node">
<title>[root] aws_security_group.main (expand)</title>
<polygon fill="none" stroke="#000000" points="1042,-180 842,-180 842,-144 1042,-144 1042,-180"/>
<text text-anchor="middle" x="942" y="-158.3" font-family="Times,serif" font-size="14.00" fill="#000000">aws_security_group.main</text>
</g>
<!-- [root] aws_instance.main (expand)&#45;&gt;[root] aws_security_group.main (expand) -->
<g id="edge14" class="edge">
<title>[root] aws_instance.main (expand)&#45;&gt;[root] aws_security_group.main (expand)</title>
<path fill="none" stroke="#000000" d="M939.757,-215.8314C940.0779,-208.131 940.4594,-198.9743 940.816,-190.4166"/>
<polygon fill="#000000" stroke="#000000" points="944.3133,-190.5503 941.2328,-180.4133 937.3194,-190.2589 944.3133,-190.5503"/>
</g>
<!-- [root] aws_subnet.main (expand) -->
<g id="node19" class="node">
<title>[root] aws_subnet.main (expand)</title>
<polygon fill="none" stroke="#000000" points="1200,-180 1060,-180 1060,-144 1200,-144 1200,-180"/>
<text text-anchor="middle" x="1130" y="-158.3" font-family="Times,serif" font-size="14.00" fill="#000000">aws_subnet.main</text>
</g>
<!-- [root] aws_instance.main (expand)&#45;&gt;[root] aws_subnet.main (expand) -->
<g id="edge15" class="edge">
<title>[root] aws_instance.main (expand)&#45;&gt;[root] aws_subnet.main (expand)</title>
<path fill="none" stroke="#000000" d="M987.1974,-215.8314C1013.1966,-206.0306 1045.4536,-193.8709 1072.7281,-183.5894"/>
<polygon fill="#000000" stroke="#000000" points="1074.0266,-186.8404 1082.1492,-180.038 1071.5574,-180.2904 1074.0266,-186.8404"/>
</g>
<!-- [root] aws_internet_gateway.main (expand) -->
<g id="node11" class="node">
<title>[root] aws_internet_gateway.main (expand)</title>
<polygon fill="none" stroke="#000000" points="1471.5,-252 1256.5,-252 1256.5,-216 1471.5,-216 1471.5,-252"/>
<text text-anchor="middle" x="1364" y="-230.3" font-family="Times,serif" font-size="14.00" fill="#000000">aws_internet_gateway.main</text>
</g>
<!-- [root] aws_vpc.main (expand) -->
<g id="node20" class="node">
<title>[root] aws_vpc.main (expand)</title>
<polygon fill="none" stroke="#000000" points="1188.5,-108 1071.5,-108 1071.5,-72 1188.5,-72 1188.5,-108"/>
<text text-anchor="middle" x="1130" y="-86.3" font-family="Times,serif" font-size="14.00" fill="#000000">aws_vpc.main</text>
</g>
<!-- [root] aws_internet_gateway.main (expand)&#45;&gt;[root] aws_vpc.main (expand) -->
<g id="edge16" class="edge">
<title>[root] aws_internet_gateway.main (expand)&#45;&gt;[root] aws_vpc.main (expand)</title>
<path fill="none" stroke="#000000" d="M1341.9436,-215.7653C1318.1569,-196.5778 1278.7439,-166.1466 1242,-144 1222.8548,-132.4607 1200.8721,-121.4209 1181.4801,-112.3648"/>
<polygon fill="#000000" stroke="#000000" points="1182.7393,-109.0913 1172.1923,-108.0849 1179.8096,-115.4488 1182.7393,-109.0913"/>
</g>
<!-- [root] aws_key_pair.main (expand) -->
<g id="node12" class="node">
<title>[root] aws_key_pair.main (expand)</title>
<polygon fill="none" stroke="#000000" points="152,-396 0,-396 0,-360 152,-360 152,-396"/>
<text text-anchor="middle" x="76" y="-374.3" font-family="Times,serif" font-size="14.00" fill="#000000">aws_key_pair.main</text>
</g>
<!-- [root] aws_key_pair.main (expand)&#45;&gt;[root] provider[&quot;registry.terraform.io/hashicorp/aws&quot;] -->
<g id="edge17" class="edge">
<title>[root] aws_key_pair.main (expand)&#45;&gt;[root] provider[&quot;registry.terraform.io/hashicorp/aws&quot;]</title>
<path fill="none" stroke="#000000" d="M77.4504,-359.8284C79.5007,-332.5296 83,-279.3034 83,-234 83,-234 83,-234 83,-162 83,-110.2126 229.2143,-60.8867 318.5038,-35.5928"/>
<polygon fill="#000000" stroke="#000000" points="319.6093,-38.9179 328.2948,-32.8506 317.7214,-32.1773 319.6093,-38.9179"/>
</g>
<!-- [root] aws_kms_key.main (expand)&#45;&gt;[root] provider[&quot;registry.terraform.io/hashicorp/aws&quot;] -->
<g id="edge18" class="edge">
<title>[root] aws_kms_key.main (expand)&#45;&gt;[root] provider[&quot;registry.terraform.io/hashicorp/aws&quot;]</title>
<path fill="none" stroke="#000000" d="M345.6265,-71.8314C352.0374,-63.2835 359.7941,-52.9412 366.7883,-43.6156"/>
<polygon fill="#000000" stroke="#000000" points="369.7367,-45.5177 372.9367,-35.4177 364.1367,-41.3177 369.7367,-45.5177"/>
</g>
<!-- [root] aws_network_acl.main (expand) -->
<g id="node14" class="node">
<title>[root] aws_network_acl.main (expand)</title>
<polygon fill="none" stroke="#000000" points="951.5,-396 772.5,-396 772.5,-360 951.5,-360 951.5,-396"/>
<text text-anchor="middle" x="862" y="-374.3" font-family="Times,serif" font-size="14.00" fill="#000000">aws_network_acl.main</text>
</g>
<!-- [root] aws_network_acl.main (expand)&#45;&gt;[root] aws_subnet.main (expand) -->
<g id="edge19" class="edge">
<title>[root] aws_network_acl.main (expand)&#45;&gt;[root] aws_subnet.main (expand)</title>
<path fill="none" stroke="#000000" d="M947.5707,-359.9117C988.1638,-349.9809 1031.2033,-337.0552 1047,-324 1089.5678,-288.8199 1112.6957,-226.1824 1123.0887,-189.966"/>
<polygon fill="#000000" stroke="#000000" points="1126.5344,-190.6345 1125.8006,-180.0651 1119.7831,-188.7852 1126.5344,-190.6345"/>
</g>
<!-- [root] aws_route.main (expand) -->
<g id="node15" class="node">
<title>[root] aws_route.main (expand)</title>
<polygon fill="none" stroke="#000000" points="1418,-396 1288,-396 1288,-360 1418,-360 1418,-396"/>
<text text-anchor="middle" x="1353" y="-374.3" font-family="Times,serif" font-size="14.00" fill="#000000">aws_route.main</text>
</g>
<!-- [root] aws_route.main (expand)&#45;&gt;[root] aws_internet_gateway.main (expand) -->
<g id="edge20" class="edge">
<title>[root] aws_route.main (expand)&#45;&gt;[root] aws_internet_gateway.main (expand)</title>
<path fill="none" stroke="#000000" d="M1354.3932,-359.7623C1356.2694,-335.201 1359.6269,-291.2474 1361.8341,-262.3541"/>
<polygon fill="#000000" stroke="#000000" points="1365.3462,-262.3272 1362.6182,-252.0896 1358.3666,-261.794 1365.3462,-262.3272"/>
</g>
<!-- [root] aws_route_table.main (expand) -->
<g id="node16" class="node">
<title>[root] aws_route_table.main (expand)</title>
<polygon fill="none" stroke="#000000" points="1331.5,-324 1158.5,-324 1158.5,-288 1331.5,-288 1331.5,-324"/>
<text text-anchor="middle" x="1245" y="-302.3" font-family="Times,serif" font-size="14.00" fill="#000000">aws_route_table.main</text>
</g>
<!-- [root] aws_route.main (expand)&#45;&gt;[root] aws_route_table.main (expand) -->
<g id="edge21" class="edge">
<title>[root] aws_route.main (expand)&#45;&gt;[root] aws_route_table.main (expand)</title>
<path fill="none" stroke="#000000" d="M1325.747,-359.8314C1312.0611,-350.7074 1295.3085,-339.539 1280.6173,-329.7449"/>
<polygon fill="#000000" stroke="#000000" points="1282.5062,-326.7977 1272.2442,-324.1628 1278.6233,-332.6221 1282.5062,-326.7977"/>
</g>
<!-- [root] aws_route_table.main (expand)&#45;&gt;[root] aws_vpc.main (expand) -->
<g id="edge22" class="edge">
<title>[root] aws_route_table.main (expand)&#45;&gt;[root] aws_vpc.main (expand)</title>
<path fill="none" stroke="#000000" d="M1245.1643,-287.7859C1244.5966,-255.9051 1239.5184,-189.0971 1209,-144 1200.8333,-131.932 1188.989,-121.7945 1176.9459,-113.6813"/>
<polygon fill="#000000" stroke="#000000" points="1178.5113,-110.5297 1168.1912,-108.1327 1174.764,-116.4422 1178.5113,-110.5297"/>
</g>
<!-- [root] aws_route_table_association.main (expand) -->
<g id="node17" class="node">
<title>[root] aws_route_table_association.main (expand)</title>
<polygon fill="none" stroke="#000000" points="1269.5,-396 1008.5,-396 1008.5,-360 1269.5,-360 1269.5,-396"/>
<text text-anchor="middle" x="1139" y="-374.3" font-family="Times,serif" font-size="14.00" fill="#000000">aws_route_table_association.main</text>
</g>
<!-- [root] aws_route_table_association.main (expand)&#45;&gt;[root] aws_route_table.main (expand) -->
<g id="edge23" class="edge">
<title>[root] aws_route_table_association.main (expand)&#45;&gt;[root] aws_route_table.main (expand)</title>
<path fill="none" stroke="#000000" d="M1165.7483,-359.8314C1179.0553,-350.7927 1195.316,-339.7476 1209.6375,-330.0198"/>
<polygon fill="#000000" stroke="#000000" points="1211.9547,-332.677 1218.2603,-324.1628 1208.0215,-326.8864 1211.9547,-332.677"/>
</g>
<!-- [root] aws_route_table_association.main (expand)&#45;&gt;[root] aws_subnet.main (expand) -->
<g id="edge24" class="edge">
<title>[root] aws_route_table_association.main (expand)&#45;&gt;[root] aws_subnet.main (expand)</title>
<path fill="none" stroke="#000000" d="M1138.2481,-359.9555C1136.6831,-322.3938 1133.0648,-235.5541 1131.1838,-190.4103"/>
<polygon fill="#000000" stroke="#000000" points="1134.6694,-189.9907 1130.756,-180.1451 1127.6755,-190.2821 1134.6694,-189.9907"/>
</g>
<!-- [root] aws_security_group.main (expand)&#45;&gt;[root] aws_vpc.main (expand) -->
<g id="edge25" class="edge">
<title>[root] aws_security_group.main (expand)&#45;&gt;[root] aws_vpc.main (expand)</title>
<path fill="none" stroke="#000000" d="M989.4403,-143.8314C1014.9195,-134.0734 1046.5044,-121.977 1073.2757,-111.7242"/>
<polygon fill="#000000" stroke="#000000" points="1074.814,-114.883 1082.9008,-108.038 1072.3104,-108.346 1074.814,-114.883"/>
</g>
<!-- [root] aws_subnet.main (expand)&#45;&gt;[root] aws_vpc.main (expand) -->
<g id="edge26" class="edge">
<title>[root] aws_subnet.main (expand)&#45;&gt;[root] aws_vpc.main (expand)</title>
<path fill="none" stroke="#000000" d="M1130,-143.8314C1130,-136.131 1130,-126.9743 1130,-118.4166"/>
<polygon fill="#000000" stroke="#000000" points="1133.5001,-118.4132 1130,-108.4133 1126.5001,-118.4133 1133.5001,-118.4132"/>
</g>
<!-- [root] aws_vpc.main (expand)&#45;&gt;[root] provider[&quot;registry.terraform.io/hashicorp/aws&quot;] -->
<g id="edge27" class="edge">
<title>[root] aws_vpc.main (expand)&#45;&gt;[root] provider[&quot;registry.terraform.io/hashicorp/aws&quot;]</title>
<path fill="none" stroke="#000000" d="M1071.309,-84.3202C951.8283,-72.7576 677.8875,-46.2472 514.8457,-30.4689"/>
<polygon fill="#000000" stroke="#000000" points="515.0438,-26.9718 504.7531,-29.4922 514.3695,-33.9393 515.0438,-26.9718"/>
</g>
<!-- [root] data.aws_ebs_volume.main (expand)&#45;&gt;[root] aws_instance.main (expand) -->
<g id="edge28" class="edge">
<title>[root] data.aws_ebs_volume.main (expand)&#45;&gt;[root] aws_instance.main (expand)</title>
<path fill="none" stroke="#000000" d="M933.7664,-287.8314C934.515,-280.131 935.4053,-270.9743 936.2373,-262.4166"/>
<polygon fill="#000000" stroke="#000000" points="939.7256,-262.7051 937.2098,-252.4133 932.7585,-262.0276 939.7256,-262.7051"/>
</g>
<!-- [root] meta.count&#45;boundary (EachMode fixup) -->
<g id="node23" class="node">
<title>[root] meta.count&#45;boundary (EachMode fixup)</title>
<ellipse fill="none" stroke="#000000" cx="477" cy="-450" rx="224.4604" ry="18"/>
<text text-anchor="middle" x="477" y="-446.3" font-family="Times,serif" font-size="14.00" fill="#000000">[root] meta.count&#45;boundary (EachMode fixup)</text>
</g>
<!-- [root] meta.count&#45;boundary (EachMode fixup)&#45;&gt;[root] aws_backup_selection.main (expand) -->
<g id="edge29" class="edge">
<title>[root] meta.count&#45;boundary (EachMode fixup)&#45;&gt;[root] aws_backup_selection.main (expand)</title>
<path fill="none" stroke="#000000" d="M518.7753,-432.2022C541.5561,-422.4968 569.9592,-410.3961 594.1456,-400.0918"/>
<polygon fill="#000000" stroke="#000000" points="595.7034,-403.2326 603.5314,-396.0931 592.9597,-396.7927 595.7034,-403.2326"/>
</g>
<!-- [root] meta.count&#45;boundary (EachMode fixup)&#45;&gt;[root] aws_iam_role_policy_attachment.backup (expand) -->
<g id="edge30" class="edge">
<title>[root] meta.count&#45;boundary (EachMode fixup)&#45;&gt;[root] aws_iam_role_policy_attachment.backup (expand)</title>
<path fill="none" stroke="#000000" d="M439.6741,-432.2022C419.5899,-422.6256 394.6147,-410.7169 373.194,-400.5031"/>
<polygon fill="#000000" stroke="#000000" points="374.4781,-397.2379 363.9453,-396.0931 371.4653,-403.5564 374.4781,-397.2379"/>
</g>
<!-- [root] meta.count&#45;boundary (EachMode fixup)&#45;&gt;[root] aws_iam_role_policy_attachment.main (expand) -->
<g id="edge31" class="edge">
<title>[root] meta.count&#45;boundary (EachMode fixup)&#45;&gt;[root] aws_iam_role_policy_attachment.main (expand)</title>
<path fill="none" stroke="#000000" d="M483.4443,-431.8114C491.3626,-411.8012 506.5675,-379.8524 529,-360 544.3487,-346.4166 563.6212,-335.8814 582.4811,-327.874"/>
<polygon fill="#000000" stroke="#000000" points="584.0265,-331.0244 591.9839,-324.0294 581.4012,-324.5354 584.0265,-331.0244"/>
</g>
<!-- [root] meta.count&#45;boundary (EachMode fixup)&#45;&gt;[root] aws_key_pair.main (expand) -->
<g id="edge32" class="edge">
<title>[root] meta.count&#45;boundary (EachMode fixup)&#45;&gt;[root] aws_key_pair.main (expand)</title>
<path fill="none" stroke="#000000" d="M376.4847,-433.8619C316.8497,-424.0405 239.5314,-410.8798 162.3305,-396.2219"/>
<polygon fill="#000000" stroke="#000000" points="162.9056,-392.7685 152.4269,-394.333 161.5941,-399.6446 162.9056,-392.7685"/>
</g>
<!-- [root] meta.count&#45;boundary (EachMode fixup)&#45;&gt;[root] aws_network_acl.main (expand) -->
<g id="edge33" class="edge">
<title>[root] meta.count&#45;boundary (EachMode fixup)&#45;&gt;[root] aws_network_acl.main (expand)</title>
<path fill="none" stroke="#000000" d="M565.8102,-433.3913C624.5004,-422.4155 701.5196,-408.0119 762.3076,-396.6438"/>
<polygon fill="#000000" stroke="#000000" points="763.1168,-400.0532 772.303,-394.7745 761.83,-393.1725 763.1168,-400.0532"/>
</g>
<!-- [root] meta.count&#45;boundary (EachMode fixup)&#45;&gt;[root] aws_route.main (expand) -->
<g id="edge34" class="edge">
<title>[root] meta.count&#45;boundary (EachMode fixup)&#45;&gt;[root] aws_route.main (expand)</title>
<path fill="none" stroke="#000000" d="M636.784,-437.3604C661.3012,-435.5066 686.3238,-433.6634 710,-432 959.439,-414.475 1026.7197,-433.5747 1277.5995,-396.062"/>
<polygon fill="#000000" stroke="#000000" points="1278.3888,-399.4826 1287.7537,-394.528 1277.3431,-392.5611 1278.3888,-399.4826"/>
</g>
<!-- [root] meta.count&#45;boundary (EachMode fixup)&#45;&gt;[root] aws_route_table_association.main (expand) -->
<g id="edge35" class="edge">
<title>[root] meta.count&#45;boundary (EachMode fixup)&#45;&gt;[root] aws_route_table_association.main (expand)</title>
<path fill="none" stroke="#000000" d="M610.1692,-435.5163C722.6867,-423.2788 883.3782,-405.8018 998.0471,-393.3302"/>
<polygon fill="#000000" stroke="#000000" points="998.7383,-396.7758 1008.3012,-392.215 997.9814,-389.8168 998.7383,-396.7758"/>
</g>
<!-- [root] provider[&quot;registry.terraform.io/hashicorp/aws&quot;] (close) -->
<g id="node24" class="node">
<title>[root] provider[&quot;registry.terraform.io/hashicorp/aws&quot;] (close)</title>
<ellipse fill="none" stroke="#000000" cx="1013" cy="-450" rx="293.548" ry="18"/>
<text text-anchor="middle" x="1013" y="-446.3" font-family="Times,serif" font-size="14.00" fill="#000000">[root] provider[&quot;registry.terraform.io/hashicorp/aws&quot;] (close)</text>
</g>
<!-- [root] provider[&quot;registry.terraform.io/hashicorp/aws&quot;] (close)&#45;&gt;[root] aws_backup_selection.main (expand) -->
<g id="edge36" class="edge">
<title>[root] provider[&quot;registry.terraform.io/hashicorp/aws&quot;] (close)&#45;&gt;[root] aws_backup_selection.main (expand)</title>
<path fill="none" stroke="#000000" d="M925.0944,-432.7542C871.7819,-422.2951 803.5335,-408.9058 747.8711,-397.9856"/>
<polygon fill="#000000" stroke="#000000" points="748.4738,-394.5372 737.9871,-396.0465 747.1262,-401.4063 748.4738,-394.5372"/>
</g>
<!-- [root] provider[&quot;registry.terraform.io/hashicorp/aws&quot;] (close)&#45;&gt;[root] aws_iam_role_policy_attachment.backup (expand) -->
<g id="edge37" class="edge">
<title>[root] provider[&quot;registry.terraform.io/hashicorp/aws&quot;] (close)&#45;&gt;[root] aws_iam_role_policy_attachment.backup (expand)</title>
<path fill="none" stroke="#000000" d="M864.3543,-434.4214C754.6294,-422.9219 605.2679,-407.2683 491.7026,-395.3662"/>
<polygon fill="#000000" stroke="#000000" points="491.8303,-391.8605 481.5199,-394.299 491.1006,-398.8224 491.8303,-391.8605"/>
</g>
<!-- [root] provider[&quot;registry.terraform.io/hashicorp/aws&quot;] (close)&#45;&gt;[root] aws_iam_role_policy_attachment.main (expand) -->
<g id="edge38" class="edge">
<title>[root] provider[&quot;registry.terraform.io/hashicorp/aws&quot;] (close)&#45;&gt;[root] aws_iam_role_policy_attachment.main (expand)</title>
<path fill="none" stroke="#000000" d="M1007.7195,-431.9441C1000.6394,-411.1151 985.9783,-377.4971 961,-360 946.9081,-350.1287 870.6792,-336.6314 797.9627,-325.6005"/>
<polygon fill="#000000" stroke="#000000" points="798.1418,-322.0881 787.7323,-324.061 797.1001,-329.0102 798.1418,-322.0881"/>
</g>
<!-- [root] provider[&quot;registry.terraform.io/hashicorp/aws&quot;] (close)&#45;&gt;[root] aws_key_pair.main (expand) -->
<g id="edge39" class="edge">
<title>[root] provider[&quot;registry.terraform.io/hashicorp/aws&quot;] (close)&#45;&gt;[root] aws_key_pair.main (expand)</title>
<path fill="none" stroke="#000000" d="M802.642,-437.4342C574.8209,-423.717 235.0585,-402.9052 162.6796,-395.8673"/>
<polygon fill="#000000" stroke="#000000" points="162.6898,-392.3468 152.3638,-394.7182 161.9148,-399.3038 162.6898,-392.3468"/>
</g>
<!-- [root] provider[&quot;registry.terraform.io/hashicorp/aws&quot;] (close)&#45;&gt;[root] aws_network_acl.main (expand) -->
<g id="edge40" class="edge">
<title>[root] provider[&quot;registry.terraform.io/hashicorp/aws&quot;] (close)&#45;&gt;[root] aws_network_acl.main (expand)</title>
<path fill="none" stroke="#000000" d="M975.2858,-432.0171C955.1972,-422.4384 930.2999,-410.5668 908.9664,-400.3946"/>
<polygon fill="#000000" stroke="#000000" points="910.2895,-397.148 899.7567,-396.0032 907.2767,-403.4665 910.2895,-397.148"/>
</g>
<!-- [root] provider[&quot;registry.terraform.io/hashicorp/aws&quot;] (close)&#45;&gt;[root] aws_route.main (expand) -->
<g id="edge41" class="edge">
<title>[root] provider[&quot;registry.terraform.io/hashicorp/aws&quot;] (close)&#45;&gt;[root] aws_route.main (expand)</title>
<path fill="none" stroke="#000000" d="M1102.1508,-432.7879C1151.3631,-423.0762 1213.7995,-410.4127 1277.7954,-396.2325"/>
<polygon fill="#000000" stroke="#000000" points="1278.6608,-399.6256 1287.6617,-394.0369 1277.1402,-392.7927 1278.6608,-399.6256"/>
</g>
<!-- [root] provider[&quot;registry.terraform.io/hashicorp/aws&quot;] (close)&#45;&gt;[root] aws_route_table_association.main (expand) -->
<g id="edge42" class="edge">
<title>[root] provider[&quot;registry.terraform.io/hashicorp/aws&quot;] (close)&#45;&gt;[root] aws_route_table_association.main (expand)</title>
<path fill="none" stroke="#000000" d="M1044.4701,-432.0171C1060.857,-422.6532 1081.0784,-411.098 1098.6077,-401.0813"/>
<polygon fill="#000000" stroke="#000000" points="1100.5485,-404.0035 1107.4944,-396.0032 1097.0755,-397.9258 1100.5485,-404.0035"/>
</g>
<!-- [root] root -->
<g id="node25" class="node">
<title>[root] root</title>
<ellipse fill="none" stroke="#000000" cx="745" cy="-522" rx="58.4896" ry="18"/>
<text text-anchor="middle" x="745" y="-518.3" font-family="Times,serif" font-size="14.00" fill="#000000">[root] root</text>
</g>
<!-- [root] root&#45;&gt;[root] meta.count&#45;boundary (EachMode fixup) -->
<g id="edge43" class="edge">
<title>[root] root&#45;&gt;[root] meta.count&#45;boundary (EachMode fixup)</title>
<path fill="none" stroke="#000000" d="M700.7453,-510.1107C660.1314,-499.1995 599.1611,-482.8194 551.1189,-469.9125"/>
<polygon fill="#000000" stroke="#000000" points="551.9501,-466.5118 541.3844,-467.2973 550.1339,-473.2721 551.9501,-466.5118"/>
</g>
<!-- [root] root&#45;&gt;[root] provider[&quot;registry.terraform.io/hashicorp/aws&quot;] (close) -->
<g id="edge44" class="edge">
<title>[root] root&#45;&gt;[root] provider[&quot;registry.terraform.io/hashicorp/aws&quot;] (close)</title>
<path fill="none" stroke="#000000" d="M789.2547,-510.1107C829.5905,-499.2742 890.0046,-483.0435 937.8921,-470.1782"/>
<polygon fill="#000000" stroke="#000000" points="938.8511,-473.5448 947.6005,-467.57 937.0349,-466.7845 938.8511,-473.5448"/>
</g>
</g>
</svg>
