<?xml version="1.0" encoding="UTF-8" standalone="no"?>
<!DOCTYPE svg PUBLIC "-//W3C//DTD SVG 1.1//EN"
 "http://www.w3.org/Graphics/SVG/1.1/DTD/svg11.dtd">
<!-- Generated by graphviz version 2.40.1 (20161225.0304)
 -->
<!-- Title: %3 Pages: 1 -->
<svg width="1635pt" height="548pt"
 viewBox="0.00 0.00 1635.23 548.00" xmlns="http://www.w3.org/2000/svg" xmlns:xlink="http://www.w3.org/1999/xlink">
<g id="graph0" class="graph" transform="scale(1 1) rotate(0) translate(4 544)">
<title>%3</title>
<polygon fill="#ffffff" stroke="transparent" points="-4,4 -4,-544 1631.2336,-544 1631.2336,4 -4,4"/>
<!-- [root] aws_backup_plan.main -->
<g id="node1" class="node">
<title>[root] aws_backup_plan.main</title>
<polygon fill="none" stroke="#000000" points="1486,-324 1304,-324 1304,-288 1486,-288 1486,-324"/>
<text text-anchor="middle" x="1395" y="-302.3" font-family="Times,serif" font-size="14.00" fill="#000000">aws_backup_plan.main</text>
</g>
<!-- [root] aws_backup_vault.main -->
<g id="node3" class="node">
<title>[root] aws_backup_vault.main</title>
<polygon fill="none" stroke="#000000" points="1549,-252 1361,-252 1361,-216 1549,-216 1549,-252"/>
<text text-anchor="middle" x="1455" y="-230.3" font-family="Times,serif" font-size="14.00" fill="#000000">aws_backup_vault.main</text>
</g>
<!-- [root] aws_backup_plan.main&#45;&gt;[root] aws_backup_vault.main -->
<g id="edge1" class="edge">
<title>[root] aws_backup_plan.main&#45;&gt;[root] aws_backup_vault.main</title>
<path fill="none" stroke="#000000" d="M1410.1405,-287.8314C1417.1217,-279.454 1425.5391,-269.3531 1433.1876,-260.1749"/>
<polygon fill="#000000" stroke="#000000" points="1435.9425,-262.3362 1439.6556,-252.4133 1430.5649,-257.8548 1435.9425,-262.3362"/>
</g>
<!-- [root] aws_backup_selection.main -->
<g id="node2" class="node">
<title>[root] aws_backup_selection.main</title>
<polygon fill="none" stroke="#000000" points="1417,-396 1201,-396 1201,-360 1417,-360 1417,-396"/>
<text text-anchor="middle" x="1309" y="-374.3" font-family="Times,serif" font-size="14.00" fill="#000000">aws_backup_selection.main</text>
</g>
<!-- [root] aws_backup_selection.main&#45;&gt;[root] aws_backup_plan.main -->
<g id="edge2" class="edge">
<title>[root] aws_backup_selection.main&#45;&gt;[root] aws_backup_plan.main</title>
<path fill="none" stroke="#000000" d="M1330.7014,-359.8314C1341.1921,-351.0485 1353.9455,-340.3712 1365.3194,-330.8489"/>
<polygon fill="#000000" stroke="#000000" points="1367.8847,-333.2659 1373.3055,-324.1628 1363.3911,-327.8986 1367.8847,-333.2659"/>
</g>
<!-- [root] aws_iam_role.backup -->
<g id="node6" class="node">
<title>[root] aws_iam_role.backup</title>
<polygon fill="none" stroke="#000000" points="1056,-324 886,-324 886,-288 1056,-288 1056,-324"/>
<text text-anchor="middle" x="971" y="-302.3" font-family="Times,serif" font-size="14.00" fill="#000000">aws_iam_role.backup</text>
</g>
<!-- [root] aws_backup_selection.main&#45;&gt;[root] aws_iam_role.backup -->
<g id="edge3" class="edge">
<title>[root] aws_backup_selection.main&#45;&gt;[root] aws_iam_role.backup</title>
<path fill="none" stroke="#000000" d="M1224.1446,-359.9243C1175.8374,-349.634 1115.2155,-336.7205 1065.4076,-326.1105"/>
<polygon fill="#000000" stroke="#000000" points="1066.1069,-322.681 1055.5971,-324.0207 1064.6484,-329.5274 1066.1069,-322.681"/>
</g>
<!-- [root] data.aws_ebs_volume.main -->
<g id="node22" class="node">
<title>[root] data.aws_ebs_volume.main</title>
<polygon fill="none" stroke="#000000" points="1286,-324 1074,-324 1074,-288 1286,-288 1286,-324"/>
<text text-anchor="middle" x="1180" y="-302.3" font-family="Times,serif" font-size="14.00" fill="#000000">data.aws_ebs_volume.main</text>
</g>
<!-- [root] aws_backup_selection.main&#45;&gt;[root] data.aws_ebs_volume.main -->
<g id="edge4" class="edge">
<title>[root] aws_backup_selection.main&#45;&gt;[root] data.aws_ebs_volume.main</title>
<path fill="none" stroke="#000000" d="M1276.4479,-359.8314C1259.7952,-350.5368 1239.3415,-339.1208 1221.5615,-329.1971"/>
<polygon fill="#000000" stroke="#000000" points="1222.9795,-325.9803 1212.5417,-324.1628 1219.5679,-332.0927 1222.9795,-325.9803"/>
</g>
<!-- [root] aws_kms_key.main -->
<g id="node13" class="node">
<title>[root] aws_kms_key.main</title>
<polygon fill="none" stroke="#000000" points="1512.5,-108 1359.5,-108 1359.5,-72 1512.5,-72 1512.5,-108"/>
<text text-anchor="middle" x="1436" y="-86.3" font-family="Times,serif" font-size="14.00" fill="#000000">aws_kms_key.main</text>
</g>
<!-- [root] aws_backup_vault.main&#45;&gt;[root] aws_kms_key.main -->
<g id="edge5" class="edge">
<title>[root] aws_backup_vault.main&#45;&gt;[root] aws_kms_key.main</title>
<path fill="none" stroke="#000000" d="M1470.9905,-215.9169C1478.6538,-206.0371 1487.0166,-193.1563 1491,-180 1495.6365,-164.6865 1497.1907,-158.7538 1491,-144 1486.3948,-133.0247 1478.3503,-123.1573 1469.8123,-114.9529"/>
<polygon fill="#000000" stroke="#000000" points="1472.0403,-112.2497 1462.2563,-108.1849 1467.3699,-117.464 1472.0403,-112.2497"/>
</g>
<!-- [root] aws_iam_instance_profile.main -->
<g id="node4" class="node">
<title>[root] aws_iam_instance_profile.main</title>
<polygon fill="none" stroke="#000000" points="1129,-180 889,-180 889,-144 1129,-144 1129,-180"/>
<text text-anchor="middle" x="1009" y="-158.3" font-family="Times,serif" font-size="14.00" fill="#000000">aws_iam_instance_profile.main</text>
</g>
<!-- [root] aws_iam_role.main -->
<g id="node7" class="node">
<title>[root] aws_iam_role.main</title>
<polygon fill="none" stroke="#000000" points="832.5,-108 679.5,-108 679.5,-72 832.5,-72 832.5,-108"/>
<text text-anchor="middle" x="756" y="-86.3" font-family="Times,serif" font-size="14.00" fill="#000000">aws_iam_role.main</text>
</g>
<!-- [root] aws_iam_instance_profile.main&#45;&gt;[root] aws_iam_role.main -->
<g id="edge6" class="edge">
<title>[root] aws_iam_instance_profile.main&#45;&gt;[root] aws_iam_role.main</title>
<path fill="none" stroke="#000000" d="M945.484,-143.9243C910.1455,-133.8675 866.0029,-121.3052 829.2163,-110.8363"/>
<polygon fill="#000000" stroke="#000000" points="830.1183,-107.454 819.5422,-108.0831 828.2022,-114.1867 830.1183,-107.454"/>
</g>
<!-- [root] aws_iam_policy.main -->
<g id="node5" class="node">
<title>[root] aws_iam_policy.main</title>
<polygon fill="none" stroke="#000000" points="752.5,-252 585.5,-252 585.5,-216 752.5,-216 752.5,-252"/>
<text text-anchor="middle" x="669" y="-230.3" font-family="Times,serif" font-size="14.00" fill="#000000">aws_iam_policy.main</text>
</g>
<!-- [root] provider.aws -->
<g id="node23" class="node">
<title>[root] provider.aws</title>
<polygon fill="none" stroke="#000000" points="756,-36 656.9615,-18 756,0 855.0385,-18 756,-36"/>
<text text-anchor="middle" x="756" y="-14.3" font-family="Times,serif" font-size="14.00" fill="#000000">provider.aws</text>
</g>
<!-- [root] aws_iam_policy.main&#45;&gt;[root] provider.aws -->
<g id="edge7" class="edge">
<title>[root] aws_iam_policy.main&#45;&gt;[root] provider.aws</title>
<path fill="none" stroke="#000000" d="M624.5431,-215.8691C609.5274,-207.346 594.4424,-195.5645 586,-180 578.3714,-165.9357 579.3143,-158.5362 586,-144 610.9224,-89.8133 672.6078,-53.6789 714.4026,-34.4935"/>
<polygon fill="#000000" stroke="#000000" points="716.0687,-37.583 723.7806,-30.3182 713.2215,-31.1882 716.0687,-37.583"/>
</g>
<!-- [root] aws_iam_role.backup&#45;&gt;[root] provider.aws -->
<g id="edge8" class="edge">
<title>[root] aws_iam_role.backup&#45;&gt;[root] provider.aws</title>
<path fill="none" stroke="#000000" d="M955.3819,-287.8704C935.6972,-264.3066 901.8051,-221.2759 880,-180 856.162,-134.8758 872.9181,-111.8206 841,-72 828.7517,-56.7192 810.9481,-44.4721 794.7958,-35.5296"/>
<polygon fill="#000000" stroke="#000000" points="796.0095,-32.213 785.5309,-30.6482 792.7466,-38.4061 796.0095,-32.213"/>
</g>
<!-- [root] aws_iam_role.main&#45;&gt;[root] provider.aws -->
<g id="edge9" class="edge">
<title>[root] aws_iam_role.main&#45;&gt;[root] provider.aws</title>
<path fill="none" stroke="#000000" d="M756,-71.8314C756,-64.131 756,-54.9743 756,-46.4166"/>
<polygon fill="#000000" stroke="#000000" points="759.5001,-46.4132 756,-36.4133 752.5001,-46.4133 759.5001,-46.4132"/>
</g>
<!-- [root] aws_iam_role_policy_attachment.backup -->
<g id="node8" class="node">
<title>[root] aws_iam_role_policy_attachment.backup</title>
<polygon fill="none" stroke="#000000" points="1144.5,-396 833.5,-396 833.5,-360 1144.5,-360 1144.5,-396"/>
<text text-anchor="middle" x="989" y="-374.3" font-family="Times,serif" font-size="14.00" fill="#000000">aws_iam_role_policy_attachment.backup</text>
</g>
<!-- [root] aws_iam_role_policy_attachment.backup&#45;&gt;[root] aws_iam_role.backup -->
<g id="edge10" class="edge">
<title>[root] aws_iam_role_policy_attachment.backup&#45;&gt;[root] aws_iam_role.backup</title>
<path fill="none" stroke="#000000" d="M984.4578,-359.8314C982.5116,-352.0463 980.1932,-342.7729 978.0337,-334.1347"/>
<polygon fill="#000000" stroke="#000000" points="981.4242,-333.2658 975.6033,-324.4133 974.6332,-334.9636 981.4242,-333.2658"/>
</g>
<!-- [root] aws_iam_role_policy_attachment.main -->
<g id="node9" class="node">
<title>[root] aws_iam_role_policy_attachment.main</title>
<polygon fill="none" stroke="#000000" points="850.5,-324 557.5,-324 557.5,-288 850.5,-288 850.5,-324"/>
<text text-anchor="middle" x="704" y="-302.3" font-family="Times,serif" font-size="14.00" fill="#000000">aws_iam_role_policy_attachment.main</text>
</g>
<!-- [root] aws_iam_role_policy_attachment.main&#45;&gt;[root] aws_iam_policy.main -->
<g id="edge11" class="edge">
<title>[root] aws_iam_role_policy_attachment.main&#45;&gt;[root] aws_iam_policy.main</title>
<path fill="none" stroke="#000000" d="M695.168,-287.8314C691.3014,-279.8771 686.6794,-270.369 682.4032,-261.5723"/>
<polygon fill="#000000" stroke="#000000" points="685.4707,-259.8768 677.9509,-252.4133 679.1751,-262.9371 685.4707,-259.8768"/>
</g>
<!-- [root] aws_iam_role_policy_attachment.main&#45;&gt;[root] aws_iam_role.main -->
<g id="edge12" class="edge">
<title>[root] aws_iam_role_policy_attachment.main&#45;&gt;[root] aws_iam_role.main</title>
<path fill="none" stroke="#000000" d="M726.4492,-287.9982C751.888,-265.8354 791.4481,-225.4971 804,-180 808.2552,-164.5762 809.6861,-158.9555 804,-144 799.9728,-133.4076 792.81,-123.5662 785.2263,-115.2649"/>
<polygon fill="#000000" stroke="#000000" points="787.7138,-112.8025 778.2213,-108.0968 782.7074,-117.695 787.7138,-112.8025"/>
</g>
<!-- [root] aws_instance.main -->
<g id="node10" class="node">
<title>[root] aws_instance.main</title>
<polygon fill="none" stroke="#000000" points="1256,-252 1104,-252 1104,-216 1256,-216 1256,-252"/>
<text text-anchor="middle" x="1180" y="-230.3" font-family="Times,serif" font-size="14.00" fill="#000000">aws_instance.main</text>
</g>
<!-- [root] aws_instance.main&#45;&gt;[root] aws_iam_instance_profile.main -->
<g id="edge13" class="edge">
<title>[root] aws_instance.main&#45;&gt;[root] aws_iam_instance_profile.main</title>
<path fill="none" stroke="#000000" d="M1136.8495,-215.8314C1113.8776,-206.159 1085.4491,-194.1891 1061.2368,-183.9944"/>
<polygon fill="#000000" stroke="#000000" points="1062.4148,-180.6929 1051.8402,-180.038 1059.6984,-187.1443 1062.4148,-180.6929"/>
</g>
<!-- [root] aws_security_group.main -->
<g id="node18" class="node">
<title>[root] aws_security_group.main</title>
<polygon fill="none" stroke="#000000" points="795,-180 595,-180 595,-144 795,-144 795,-180"/>
<text text-anchor="middle" x="695" y="-158.3" font-family="Times,serif" font-size="14.00" fill="#000000">aws_security_group.main</text>
</g>
<!-- [root] aws_instance.main&#45;&gt;[root] aws_security_group.main -->
<g id="edge14" class="edge">
<title>[root] aws_instance.main&#45;&gt;[root] aws_security_group.main</title>
<path fill="none" stroke="#000000" d="M1103.9522,-222.7104C1023.7811,-210.8087 896.7045,-191.9438 805.481,-178.4013"/>
<polygon fill="#000000" stroke="#000000" points="805.7829,-174.9078 795.3774,-176.9014 804.755,-181.832 805.7829,-174.9078"/>
</g>
<!-- [root] aws_subnet.main -->
<g id="node19" class="node">
<title>[root] aws_subnet.main</title>
<polygon fill="none" stroke="#000000" points="539,-180 399,-180 399,-144 539,-144 539,-180"/>
<text text-anchor="middle" x="469" y="-158.3" font-family="Times,serif" font-size="14.00" fill="#000000">aws_subnet.main</text>
</g>
<!-- [root] aws_instance.main&#45;&gt;[root] aws_subnet.main -->
<g id="edge15" class="edge">
<title>[root] aws_instance.main&#45;&gt;[root] aws_subnet.main</title>
<path fill="none" stroke="#000000" d="M1103.8889,-228.5984C990.7301,-220.2243 771.5268,-202.6822 586,-180 574.1268,-178.5484 561.6047,-176.8264 549.3424,-175.0321"/>
<polygon fill="#000000" stroke="#000000" points="549.5293,-171.5214 539.1232,-173.5121 548.4995,-178.4453 549.5293,-171.5214"/>
</g>
<!-- [root] data.aws_ami.amazon_linux -->
<g id="node21" class="node">
<title>[root] data.aws_ami.amazon_linux</title>
<polygon fill="none" stroke="#000000" points="1262,-108 1046,-108 1046,-72 1262,-72 1262,-108"/>
<text text-anchor="middle" x="1154" y="-86.3" font-family="Times,serif" font-size="14.00" fill="#000000">data.aws_ami.amazon_linux</text>
</g>
<!-- [root] aws_instance.main&#45;&gt;[root] data.aws_ami.amazon_linux -->
<g id="edge16" class="edge">
<title>[root] aws_instance.main&#45;&gt;[root] data.aws_ami.amazon_linux</title>
<path fill="none" stroke="#000000" d="M1256.227,-224.2149C1334.0175,-213.4493 1445.1378,-195.601 1458,-180 1468.1781,-167.6547 1468.2768,-156.2632 1458,-144 1445.7009,-129.3236 1352.4229,-114.2075 1272.3959,-103.7148"/>
<polygon fill="#000000" stroke="#000000" points="1272.5747,-100.2088 1262.2078,-102.3943 1271.6749,-107.1508 1272.5747,-100.2088"/>
</g>
<!-- [root] provisioner.remote&#45;exec -->
<g id="node24" class="node">
<title>[root] provisioner.remote&#45;exec</title>
<ellipse fill="none" stroke="#000000" cx="1298" cy="-162" rx="151.3732" ry="18"/>
<text text-anchor="middle" x="1298" y="-158.3" font-family="Times,serif" font-size="14.00" fill="#000000">[root] provisioner.remote&#45;exec</text>
</g>
<!-- [root] aws_instance.main&#45;&gt;[root] provisioner.remote&#45;exec -->
<g id="edge17" class="edge">
<title>[root] aws_instance.main&#45;&gt;[root] provisioner.remote&#45;exec</title>
<path fill="none" stroke="#000000" d="M1209.7764,-215.8314C1224.9845,-206.5518 1243.6584,-195.1576 1259.9039,-185.2451"/>
<polygon fill="#000000" stroke="#000000" points="1261.9285,-188.1098 1268.6419,-179.9134 1258.2825,-182.1344 1261.9285,-188.1098"/>
</g>
<!-- [root] aws_internet_gateway.main -->
<g id="node11" class="node">
<title>[root] aws_internet_gateway.main</title>
<polygon fill="none" stroke="#000000" points="342.5,-252 127.5,-252 127.5,-216 342.5,-216 342.5,-252"/>
<text text-anchor="middle" x="235" y="-230.3" font-family="Times,serif" font-size="14.00" fill="#000000">aws_internet_gateway.main</text>
</g>
<!-- [root] aws_vpc.main -->
<g id="node20" class="node">
<title>[root] aws_vpc.main</title>
<polygon fill="none" stroke="#000000" points="527.5,-108 410.5,-108 410.5,-72 527.5,-72 527.5,-108"/>
<text text-anchor="middle" x="469" y="-86.3" font-family="Times,serif" font-size="14.00" fill="#000000">aws_vpc.main</text>
</g>
<!-- [root] aws_internet_gateway.main&#45;&gt;[root] aws_vpc.main -->
<g id="edge18" class="edge">
<title>[root] aws_internet_gateway.main&#45;&gt;[root] aws_vpc.main</title>
<path fill="none" stroke="#000000" d="M257.0564,-215.7653C280.8431,-196.5778 320.2561,-166.1466 357,-144 376.1452,-132.4607 398.1279,-121.4209 417.5199,-112.3648"/>
<polygon fill="#000000" stroke="#000000" points="419.1904,-115.4488 426.8077,-108.0849 416.2607,-109.0913 419.1904,-115.4488"/>
</g>
<!-- [root] aws_key_pair.main -->
<g id="node12" class="node">
<title>[root] aws_key_pair.main</title>
<polygon fill="none" stroke="#000000" points="152,-396 0,-396 0,-360 152,-360 152,-396"/>
<text text-anchor="middle" x="76" y="-374.3" font-family="Times,serif" font-size="14.00" fill="#000000">aws_key_pair.main</text>
</g>
<!-- [root] aws_key_pair.main&#45;&gt;[root] provider.aws -->
<g id="edge19" class="edge">
<title>[root] aws_key_pair.main&#45;&gt;[root] provider.aws</title>
<path fill="none" stroke="#000000" d="M78.4864,-359.855C82.0013,-332.5902 88,-279.4068 88,-234 88,-234 88,-234 88,-162 88,-101.5504 511.4173,-46.0794 684.0427,-25.976"/>
<polygon fill="#000000" stroke="#000000" points="684.5239,-29.4438 694.0551,-24.8169 683.7189,-22.4902 684.5239,-29.4438"/>
</g>
<!-- [root] aws_kms_key.main&#45;&gt;[root] provider.aws -->
<g id="edge20" class="edge">
<title>[root] aws_kms_key.main&#45;&gt;[root] provider.aws</title>
<path fill="none" stroke="#000000" d="M1359.1955,-81.5538C1331.4115,-78.5162 1299.7956,-75.0803 1271,-72 1113.7122,-55.1746 929.3432,-35.9675 829.4273,-25.6015"/>
<polygon fill="#000000" stroke="#000000" points="829.7441,-22.1156 819.4363,-24.5652 829.0218,-29.0783 829.7441,-22.1156"/>
</g>
<!-- [root] aws_network_acl.main -->
<g id="node14" class="node">
<title>[root] aws_network_acl.main</title>
<polygon fill="none" stroke="#000000" points="815.5,-396 636.5,-396 636.5,-360 815.5,-360 815.5,-396"/>
<text text-anchor="middle" x="726" y="-374.3" font-family="Times,serif" font-size="14.00" fill="#000000">aws_network_acl.main</text>
</g>
<!-- [root] aws_network_acl.main&#45;&gt;[root] aws_subnet.main -->
<g id="edge21" class="edge">
<title>[root] aws_network_acl.main&#45;&gt;[root] aws_subnet.main</title>
<path fill="none" stroke="#000000" d="M636.1009,-365.7348C605.4409,-357.8972 572.7011,-345.052 548,-324 506.3831,-288.5312 484.7717,-225.9991 475.2456,-189.8787"/>
<polygon fill="#000000" stroke="#000000" points="478.5972,-188.8542 472.7703,-180.0056 471.8074,-190.5566 478.5972,-188.8542"/>
</g>
<!-- [root] aws_route.main -->
<g id="node15" class="node">
<title>[root] aws_route.main</title>
<polygon fill="none" stroke="#000000" points="300,-396 170,-396 170,-360 300,-360 300,-396"/>
<text text-anchor="middle" x="235" y="-374.3" font-family="Times,serif" font-size="14.00" fill="#000000">aws_route.main</text>
</g>
<!-- [root] aws_route.main&#45;&gt;[root] aws_internet_gateway.main -->
<g id="edge22" class="edge">
<title>[root] aws_route.main&#45;&gt;[root] aws_internet_gateway.main</title>
<path fill="none" stroke="#000000" d="M235,-359.7623C235,-335.201 235,-291.2474 235,-262.3541"/>
<polygon fill="#000000" stroke="#000000" points="238.5001,-262.0896 235,-252.0896 231.5001,-262.0897 238.5001,-262.0896"/>
</g>
<!-- [root] aws_route_table.main -->
<g id="node16" class="node">
<title>[root] aws_route_table.main</title>
<polygon fill="none" stroke="#000000" points="440.5,-324 267.5,-324 267.5,-288 440.5,-288 440.5,-324"/>
<text text-anchor="middle" x="354" y="-302.3" font-family="Times,serif" font-size="14.00" fill="#000000">aws_route_table.main</text>
</g>
<!-- [root] aws_route.main&#45;&gt;[root] aws_route_table.main -->
<g id="edge23" class="edge">
<title>[root] aws_route.main&#45;&gt;[root] aws_route_table.main</title>
<path fill="none" stroke="#000000" d="M265.0287,-359.8314C280.2496,-350.6221 298.9128,-339.3301 315.2083,-329.4706"/>
<polygon fill="#000000" stroke="#000000" points="317.2369,-332.3341 323.9809,-324.1628 313.6132,-326.345 317.2369,-332.3341"/>
</g>
<!-- [root] aws_route_table.main&#45;&gt;[root] aws_vpc.main -->
<g id="edge24" class="edge">
<title>[root] aws_route_table.main&#45;&gt;[root] aws_vpc.main</title>
<path fill="none" stroke="#000000" d="M353.8357,-287.7859C354.4034,-255.9051 359.4816,-189.0971 390,-144 398.1667,-131.932 410.011,-121.7945 422.0541,-113.6813"/>
<polygon fill="#000000" stroke="#000000" points="424.236,-116.4422 430.8088,-108.1327 420.4887,-110.5297 424.236,-116.4422"/>
</g>
<!-- [root] aws_route_table_association.main -->
<g id="node17" class="node">
<title>[root] aws_route_table_association.main</title>
<polygon fill="none" stroke="#000000" points="579.5,-396 318.5,-396 318.5,-360 579.5,-360 579.5,-396"/>
<text text-anchor="middle" x="449" y="-374.3" font-family="Times,serif" font-size="14.00" fill="#000000">aws_route_table_association.main</text>
</g>
<!-- [root] aws_route_table_association.main&#45;&gt;[root] aws_route_table.main -->
<g id="edge25" class="edge">
<title>[root] aws_route_table_association.main&#45;&gt;[root] aws_route_table.main</title>
<path fill="none" stroke="#000000" d="M425.0275,-359.8314C413.2139,-350.8779 398.8028,-339.9558 386.0565,-330.2955"/>
<polygon fill="#000000" stroke="#000000" points="388.0486,-327.4137 377.9648,-324.1628 383.8205,-332.9925 388.0486,-327.4137"/>
</g>
<!-- [root] aws_route_table_association.main&#45;&gt;[root] aws_subnet.main -->
<g id="edge26" class="edge">
<title>[root] aws_route_table_association.main&#45;&gt;[root] aws_subnet.main</title>
<path fill="none" stroke="#000000" d="M450.6708,-359.9555C454.1561,-322.3144 462.2235,-235.1867 466.3959,-190.1246"/>
<polygon fill="#000000" stroke="#000000" points="469.8829,-190.4252 467.3199,-180.1451 462.9127,-189.7797 469.8829,-190.4252"/>
</g>
<!-- [root] aws_security_group.main&#45;&gt;[root] aws_vpc.main -->
<g id="edge27" class="edge">
<title>[root] aws_security_group.main&#45;&gt;[root] aws_vpc.main</title>
<path fill="none" stroke="#000000" d="M638.2624,-143.9243C607.0982,-133.9959 568.2689,-121.6255 535.6644,-111.2382"/>
<polygon fill="#000000" stroke="#000000" points="536.3516,-107.7839 525.761,-108.0831 534.2267,-114.4536 536.3516,-107.7839"/>
</g>
<!-- [root] aws_subnet.main&#45;&gt;[root] aws_vpc.main -->
<g id="edge28" class="edge">
<title>[root] aws_subnet.main&#45;&gt;[root] aws_vpc.main</title>
<path fill="none" stroke="#000000" d="M469,-143.8314C469,-136.131 469,-126.9743 469,-118.4166"/>
<polygon fill="#000000" stroke="#000000" points="472.5001,-118.4132 469,-108.4133 465.5001,-118.4133 472.5001,-118.4132"/>
</g>
<!-- [root] aws_vpc.main&#45;&gt;[root] provider.aws -->
<g id="edge29" class="edge">
<title>[root] aws_vpc.main&#45;&gt;[root] provider.aws</title>
<path fill="none" stroke="#000000" d="M527.7713,-75.256C579.6291,-62.2464 654.4866,-43.4668 704.1537,-31.0067"/>
<polygon fill="#000000" stroke="#000000" points="705.1967,-34.3536 714.0445,-28.5254 703.4934,-27.564 705.1967,-34.3536"/>
</g>
<!-- [root] data.aws_ami.amazon_linux&#45;&gt;[root] provider.aws -->
<g id="edge30" class="edge">
<title>[root] data.aws_ami.amazon_linux&#45;&gt;[root] provider.aws</title>
<path fill="none" stroke="#000000" d="M1054.3381,-71.9707C979.3075,-58.3973 878.9373,-40.2399 815.874,-28.8315"/>
<polygon fill="#000000" stroke="#000000" points="816.1628,-25.327 805.6994,-26.9909 814.9166,-32.2152 816.1628,-25.327"/>
</g>
<!-- [root] data.aws_ebs_volume.main&#45;&gt;[root] aws_instance.main -->
<g id="edge31" class="edge">
<title>[root] data.aws_ebs_volume.main&#45;&gt;[root] aws_instance.main</title>
<path fill="none" stroke="#000000" d="M1180,-287.8314C1180,-280.131 1180,-270.9743 1180,-262.4166"/>
<polygon fill="#000000" stroke="#000000" points="1183.5001,-262.4132 1180,-252.4133 1176.5001,-262.4133 1183.5001,-262.4132"/>
</g>
<!-- [root] meta.count&#45;boundary (EachMode fixup) -->
<g id="node25" class="node">
<title>[root] meta.count&#45;boundary (EachMode fixup)</title>
<ellipse fill="none" stroke="#000000" cx="983" cy="-450" rx="224.4604" ry="18"/>
<text text-anchor="middle" x="983" y="-446.3" font-family="Times,serif" font-size="14.00" fill="#000000">[root] meta.count&#45;boundary (EachMode fixup)</text>
</g>
<!-- [root] meta.count&#45;boundary (EachMode fixup)&#45;&gt;[root] aws_backup_selection.main -->
<g id="edge32" class="edge">
<title>[root] meta.count&#45;boundary (EachMode fixup)&#45;&gt;[root] aws_backup_selection.main</title>
<path fill="none" stroke="#000000" d="M1059.8446,-433.0282C1107.0522,-422.602 1167.7897,-409.1876 1217.4773,-398.2136"/>
<polygon fill="#000000" stroke="#000000" points="1218.2504,-401.6273 1227.2603,-396.0529 1216.7407,-394.792 1218.2504,-401.6273"/>
</g>
<!-- [root] meta.count&#45;boundary (EachMode fixup)&#45;&gt;[root] aws_iam_role_policy_attachment.backup -->
<g id="edge33" class="edge">
<title>[root] meta.count&#45;boundary (EachMode fixup)&#45;&gt;[root] aws_iam_role_policy_attachment.backup</title>
<path fill="none" stroke="#000000" d="M984.5141,-431.8314C985.1558,-424.131 985.9188,-414.9743 986.6319,-406.4166"/>
<polygon fill="#000000" stroke="#000000" points="990.1229,-406.6694 987.4656,-396.4133 983.1471,-406.088 990.1229,-406.6694"/>
</g>
<!-- [root] meta.count&#45;boundary (EachMode fixup)&#45;&gt;[root] aws_iam_role_policy_attachment.main -->
<g id="edge34" class="edge">
<title>[root] meta.count&#45;boundary (EachMode fixup)&#45;&gt;[root] aws_iam_role_policy_attachment.main</title>
<path fill="none" stroke="#000000" d="M1072.8296,-433.4589C1128.719,-419.2877 1184.4658,-395.4769 1153,-360 1148.0148,-354.3793 988.3953,-336.1671 860.8862,-322.4347"/>
<polygon fill="#000000" stroke="#000000" points="860.918,-318.9181 850.6012,-321.3293 860.1699,-325.878 860.918,-318.9181"/>
</g>
<!-- [root] meta.count&#45;boundary (EachMode fixup)&#45;&gt;[root] aws_key_pair.main -->
<g id="edge35" class="edge">
<title>[root] meta.count&#45;boundary (EachMode fixup)&#45;&gt;[root] aws_key_pair.main</title>
<path fill="none" stroke="#000000" d="M823.5335,-437.3389C798.9154,-435.4831 773.7792,-433.6451 750,-432 491.6807,-414.1289 422.6293,-430.8278 162.4932,-396.0921"/>
<polygon fill="#000000" stroke="#000000" points="162.7407,-392.5939 152.3627,-394.7265 161.8054,-399.5311 162.7407,-392.5939"/>
</g>
<!-- [root] meta.count&#45;boundary (EachMode fixup)&#45;&gt;[root] aws_network_acl.main -->
<g id="edge36" class="edge">
<title>[root] meta.count&#45;boundary (EachMode fixup)&#45;&gt;[root] aws_network_acl.main</title>
<path fill="none" stroke="#000000" d="M921.115,-432.6626C884.8477,-422.5021 838.7949,-409.6001 800.5391,-398.8826"/>
<polygon fill="#000000" stroke="#000000" points="801.0561,-395.3927 790.4827,-396.0652 799.1677,-402.1332 801.0561,-395.3927"/>
</g>
<!-- [root] meta.count&#45;boundary (EachMode fixup)&#45;&gt;[root] aws_route.main -->
<g id="edge37" class="edge">
<title>[root] meta.count&#45;boundary (EachMode fixup)&#45;&gt;[root] aws_route.main</title>
<path fill="none" stroke="#000000" d="M822.0369,-437.4191C641.9468,-423.3012 368.5728,-401.7288 310.2598,-395.662"/>
<polygon fill="#000000" stroke="#000000" points="310.6001,-392.1779 300.2557,-394.4676 309.7702,-399.1285 310.6001,-392.1779"/>
</g>
<!-- [root] meta.count&#45;boundary (EachMode fixup)&#45;&gt;[root] aws_route_table_association.main -->
<g id="edge38" class="edge">
<title>[root] meta.count&#45;boundary (EachMode fixup)&#45;&gt;[root] aws_route_table_association.main</title>
<path fill="none" stroke="#000000" d="M868.1156,-434.51C786.5048,-423.5063 676.4408,-408.6662 589.5822,-396.9549"/>
<polygon fill="#000000" stroke="#000000" points="590.0241,-393.4829 579.6461,-395.6152 589.0887,-400.4201 590.0241,-393.4829"/>
</g>
<!-- [root] provider.aws (close) -->
<g id="node26" class="node">
<title>[root] provider.aws (close)</title>
<ellipse fill="none" stroke="#000000" cx="608" cy="-450" rx="132.6765" ry="18"/>
<text text-anchor="middle" x="608" y="-446.3" font-family="Times,serif" font-size="14.00" fill="#000000">[root] provider.aws (close)</text>
</g>
<!-- [root] provider.aws (close)&#45;&gt;[root] aws_backup_selection.main -->
<g id="edge39" class="edge">
<title>[root] provider.aws (close)&#45;&gt;[root] aws_backup_selection.main</title>
<path fill="none" stroke="#000000" d="M703.4218,-437.4123C718.978,-435.5018 734.9291,-433.6278 750,-432 928.7845,-412.6899 974.11,-414.3076 1153,-396 1165.1983,-394.7516 1177.9255,-393.3863 1190.6194,-391.9837"/>
<polygon fill="#000000" stroke="#000000" points="1191.2304,-395.4373 1200.7818,-390.8523 1190.4559,-388.4803 1191.2304,-395.4373"/>
</g>
<!-- [root] provider.aws (close)&#45;&gt;[root] aws_iam_role_policy_attachment.backup -->
<g id="edge40" class="edge">
<title>[root] provider.aws (close)&#45;&gt;[root] aws_iam_role_policy_attachment.backup</title>
<path fill="none" stroke="#000000" d="M685.5603,-435.3429C742.665,-424.5515 820.9604,-409.7555 883.7155,-397.8963"/>
<polygon fill="#000000" stroke="#000000" points="884.4721,-401.3153 893.6482,-396.0192 883.1722,-394.4371 884.4721,-401.3153"/>
</g>
<!-- [root] provider.aws (close)&#45;&gt;[root] aws_iam_role_policy_attachment.main -->
<g id="edge41" class="edge">
<title>[root] provider.aws (close)&#45;&gt;[root] aws_iam_role_policy_attachment.main</title>
<path fill="none" stroke="#000000" d="M608.0062,-431.9514C608.8294,-412.644 612.568,-381.8546 627,-360 634.9642,-347.9397 646.6265,-337.7636 658.4774,-329.6106"/>
<polygon fill="#000000" stroke="#000000" points="660.5985,-332.4068 667.0899,-324.0334 656.7936,-326.5312 660.5985,-332.4068"/>
</g>
<!-- [root] provider.aws (close)&#45;&gt;[root] aws_key_pair.main -->
<g id="edge42" class="edge">
<title>[root] provider.aws (close)&#45;&gt;[root] aws_key_pair.main</title>
<path fill="none" stroke="#000000" d="M499.2266,-439.5782C410.9562,-430.488 283.1184,-415.8927 162.5457,-396.1851"/>
<polygon fill="#000000" stroke="#000000" points="162.8315,-392.685 152.3952,-394.5109 161.6923,-399.5917 162.8315,-392.685"/>
</g>
<!-- [root] provider.aws (close)&#45;&gt;[root] aws_network_acl.main -->
<g id="edge43" class="edge">
<title>[root] provider.aws (close)&#45;&gt;[root] aws_network_acl.main</title>
<path fill="none" stroke="#000000" d="M636.866,-432.3868C652.0643,-423.1133 670.9092,-411.6147 687.3511,-401.5824"/>
<polygon fill="#000000" stroke="#000000" points="689.4864,-404.3796 696.1998,-396.1832 685.8403,-398.4041 689.4864,-404.3796"/>
</g>
<!-- [root] provider.aws (close)&#45;&gt;[root] aws_route.main -->
<g id="edge44" class="edge">
<title>[root] provider.aws (close)&#45;&gt;[root] aws_route.main</title>
<path fill="none" stroke="#000000" d="M523.3196,-436.0985C465.7684,-426.3253 387.7048,-412.4374 310.2542,-396.2088"/>
<polygon fill="#000000" stroke="#000000" points="310.8286,-392.7531 300.3215,-394.1138 309.3839,-399.6024 310.8286,-392.7531"/>
</g>
<!-- [root] provider.aws (close)&#45;&gt;[root] aws_route_table_association.main -->
<g id="edge45" class="edge">
<title>[root] provider.aws (close)&#45;&gt;[root] aws_route_table_association.main</title>
<path fill="none" stroke="#000000" d="M569.9155,-432.7542C548.4367,-423.028 521.3622,-410.7678 498.2805,-400.3157"/>
<polygon fill="#000000" stroke="#000000" points="499.5459,-397.0466 488.9925,-396.1098 496.6583,-403.4233 499.5459,-397.0466"/>
</g>
<!-- [root] provisioner.remote&#45;exec (close) -->
<g id="node27" class="node">
<title>[root] provisioner.remote&#45;exec (close)</title>
<ellipse fill="none" stroke="#000000" cx="1442" cy="-450" rx="185.4674" ry="18"/>
<text text-anchor="middle" x="1442" y="-446.3" font-family="Times,serif" font-size="14.00" fill="#000000">[root] provisioner.remote&#45;exec (close)</text>
</g>
<!-- [root] provisioner.remote&#45;exec (close)&#45;&gt;[root] aws_instance.main -->
<g id="edge46" class="edge">
<title>[root] provisioner.remote&#45;exec (close)&#45;&gt;[root] aws_instance.main</title>
<path fill="none" stroke="#000000" d="M1457.9788,-431.8202C1484.493,-399.4003 1531.2428,-330.9845 1495,-288 1480.2774,-270.5387 1354.1837,-253.2002 1266.0728,-243.0499"/>
<polygon fill="#000000" stroke="#000000" points="1266.3955,-239.5641 1256.0634,-241.9087 1265.6025,-246.519 1266.3955,-239.5641"/>
</g>
<!-- [root] root -->
<g id="node28" class="node">
<title>[root] root</title>
<ellipse fill="none" stroke="#000000" cx="983" cy="-522" rx="58.4896" ry="18"/>
<text text-anchor="middle" x="983" y="-518.3" font-family="Times,serif" font-size="14.00" fill="#000000">[root] root</text>
</g>
<!-- [root] root&#45;&gt;[root] meta.count&#45;boundary (EachMode fixup) -->
<g id="edge47" class="edge">
<title>[root] root&#45;&gt;[root] meta.count&#45;boundary (EachMode fixup)</title>
<path fill="none" stroke="#000000" d="M983,-503.8314C983,-496.131 983,-486.9743 983,-478.4166"/>
<polygon fill="#000000" stroke="#000000" points="986.5001,-478.4132 983,-468.4133 979.5001,-478.4133 986.5001,-478.4132"/>
</g>
<!-- [root] root&#45;&gt;[root] provider.aws (close) -->
<g id="edge48" class="edge">
<title>[root] root&#45;&gt;[root] provider.aws (close)</title>
<path fill="none" stroke="#000000" d="M933.2029,-512.439C872.5026,-500.7845 768.8902,-480.8909 694.9297,-466.6905"/>
<polygon fill="#000000" stroke="#000000" points="695.1785,-463.1744 684.6979,-464.726 693.8586,-470.0489 695.1785,-463.1744"/>
</g>
<!-- [root] root&#45;&gt;[root] provisioner.remote&#45;exec (close) -->
<g id="edge49" class="edge">
<title>[root] root&#45;&gt;[root] provisioner.remote&#45;exec (close)</title>
<path fill="none" stroke="#000000" d="M1035.2063,-513.8108C1107.5259,-502.4665 1239.9008,-481.7018 1333.9931,-466.9423"/>
<polygon fill="#000000" stroke="#000000" points="1334.7845,-470.361 1344.1212,-465.3535 1333.6996,-463.4456 1334.7845,-470.361"/>
</g>
</g>
</svg>
